<?xml version="1.0" encoding="UTF-8"?>
<svg width="31px" height="40px" viewBox="0 0 31 40" version="1.1" xmlns="http://www.w3.org/2000/svg" xmlns:xlink="http://www.w3.org/1999/xlink">
    <!-- Generator: Sketch 50.2 (55047) - http://www.bohemiancoding.com/sketch -->
    <title>Food Delivery_icon@1x</title>
    <desc>Created with Sketch.</desc>
    <defs></defs>
    <g id="Page-1" stroke="none" stroke-width="1" fill="none" fill-rule="evenodd">
        <g id="Artboard" transform="translate(-607.000000, -4980.000000)" fill="#f54917">
            <g id="Group-3" transform="translate(-5.000000, 4951.000000)">
                <path d="M627.500033,29.000016 C636.046571,29.000016 642.999836,36.785252 642.999836,43.896334 C642.999836,46.754157 641.977892,51.10021 637.636445,57.572957 C634.651232,62.02393 630.723803,65.722489 630.600581,65.877934 L628.469408,68.565778 C628.254479,68.83685 627.890423,68.999992 627.500033,68.999992 C627.109643,68.999992 626.745488,68.83685 626.530559,68.565778 L624.399254,65.87759 C624.274778,65.720511 620.326031,61.990003 617.363522,57.572957 C613.022075,51.099823 612.000098,46.753899 612.000098,43.896334 C612.000098,36.785252 618.953363,29.000016 627.500033,29.000016 Z M635.608265,56.631472 C639.635288,50.626823 640.67723,46.342303 640.67723,43.896334 C640.67723,37.850663 634.766006,30.932608 627.500033,30.932608 C620.233961,30.932608 614.322737,37.850663 614.322737,43.896334 C614.322737,46.342303 615.364646,50.626823 619.391669,56.631472 C622.313027,60.986469 626.216267,64.659314 626.338334,64.81377 L627.500033,66.278866 L628.662095,64.813383 C628.78337,64.66069 632.664599,61.020267 635.608265,56.631472 Z M627.500033,33.983458 C632.222498,33.983458 636.98948,39.007449 636.98948,43.984441 C636.98948,48.961304 632.222498,53.985639 627.500033,53.985639 C622.777436,53.985639 618.010487,48.961304 618.010487,43.984441 C618.010487,39.007449 622.777436,33.983458 627.500033,33.983458 Z M627.500033,51.54612 C630.946157,51.54612 634.674728,47.616522 634.674728,43.984441 C634.674728,40.352962 630.946157,36.423106 627.500033,36.423106 C624.05381,36.423106 620.325239,40.352962 620.325239,43.984441 C620.325239,47.616522 624.05381,51.54612 627.500033,51.54612 Z" id="Food-Delivery_icon"></path>
            </g>
        </g>
    </g>
</svg>