<?xml version="1.0" encoding="UTF-8"?>
<svg width="96px" height="126px" viewBox="0 0 96 126" version="1.1" xmlns="http://www.w3.org/2000/svg" xmlns:xlink="http://www.w3.org/1999/xlink">
    <!-- Generator: Sketch 50.2 (55047) - http://www.bohemiancoding.com/sketch -->
    <title>Logo_color_top@1x</title>
    <desc>Created with Sketch.</desc>
    <defs>
        <polygon id="path-1" points="0.0655965293 7.704859 7.45613883 0.155791757 27.2936226 11.1049458 9.45136659 27.4029501"></polygon>
    </defs>
    <g id="Page-1" stroke="none" stroke-width="1" fill="none" fill-rule="evenodd">
        <g id="Artboard" transform="translate(-89.000000, -67.000000)">
            <g id="Logo_color_top" transform="translate(89.000000, 67.000000)">
                <g id="Artboard-1">
                    <g id="_Group_" transform="translate(8.472885, 0.000000)" fill-rule="nonzero">
                        <path d="M42.1621692,0.180390456 C18.6266811,0.453709328 -0.240520607,19.4849024 0.0218655098,42.7088069 C0.284251627,65.9327115 19.5723644,84.5402603 43.1078525,84.275141 C66.6433406,84.0100217 85.5105423,64.9706291 85.2481562,41.7467245 C84.9857701,18.52282 65.6976573,-0.0847288503 42.1621692,0.180390456 Z M43.2964425,83.2693275 C23.3824295,83.493449 7.04889371,66.9275922 6.81657267,46.2701518 C6.58425163,25.6127115 22.5378742,8.69427332 42.4518872,8.47288503 C62.3659002,8.25149675 78.699436,24.8146204 78.931757,45.4747939 C79.1640781,66.1349675 63.2104555,83.0561388 43.2964425,83.2802603 L43.2964425,83.2693275 Z" id="_Compound_Path_" fill="#F1F1F2"></path>
                        <g id="_Group_2" transform="translate(9.566161, 11.479393)" fill="#A6A8AB">
                            <path d="M58.8482863,34.107462 C58.836521,33.7014794 58.9865995,33.3074668 59.2654738,33.0121882 C59.544348,32.7169096 59.9291489,32.5445793 60.335141,32.5331453 L64.8421692,32.4812148 C65.6868627,32.4887313 66.3663728,33.1780185 66.3618221,34.0227332 C66.384817,34.8680791 65.7202021,35.5730106 64.8749675,35.5997831 L60.3679393,35.6489805 C59.9619995,35.6460913 59.5738348,35.4820561 59.2888424,35.192963 C59.0038499,34.90387 58.8453764,34.5134017 58.8482863,34.107462 Z" id="_Path_"></path>
                            <path d="M0.254186551,34.7661605 C0.231209335,33.9212896 0.896236627,33.217143 1.74104121,33.1918438 L6.24806941,33.1399132 C7.09320181,33.1489242 7.77228202,33.8389967 7.76772234,34.6841649 C7.79071783,35.5280016 7.12732624,36.2317098 6.28360087,36.2584816 L1.77383948,36.3104121 C0.928707079,36.3014012 0.249626875,35.6113287 0.254186551,34.7661605 Z" id="_Path_2"></path>
                            <path d="M33.6182213,60.8899783 C34.4633537,60.8989893 35.1424339,61.5890618 35.1378742,62.4342299 L35.1898048,67.1079826 C35.2143355,67.9528727 34.5505055,68.6582684 33.7056833,68.6850325 C33.2997435,68.6821433 32.9115788,68.5181081 32.6265864,68.2290151 C32.341594,67.9399221 32.1831204,67.5494538 32.1860304,67.1435141 L32.1313666,62.4670282 C32.1083717,61.6216823 32.7729866,60.9167508 33.6182213,60.8899783 Z" id="_Path_3"></path>
                            <path d="M32.9212581,0.10659436 C33.7623021,0.114102579 34.4397133,0.798837151 34.4381779,1.63991323 L34.4928416,6.31639913 C34.504607,6.72238174 34.3545284,7.11639432 34.0756542,7.41167293 C33.79678,7.70695154 33.4119791,7.87928191 33.005987,7.89071584 C32.6000472,7.88782662 32.2118825,7.72379144 31.9268901,7.4346984 C31.6418976,7.14560535 31.4834241,6.75513706 31.4863341,6.3491974 L31.4316703,1.68091106 C31.4199114,1.27446759 31.5703625,0.880049274 31.8498239,0.584691978 C32.1292852,0.289334682 32.514786,0.11731573 32.9212581,0.10659436 Z" id="_Path_4"></path>
                        </g>
                        <g id="_Group_3" transform="translate(13.665944, 15.579176)" fill="#D0D2D3">
                            <path d="M13.0154447,60.1766161 C12.2889696,59.7346266 12.0365569,58.8006998 12.4414751,58.0529284 L13.179436,56.6863341 C13.3654236,56.3299973 13.6889372,56.06513 14.0749748,55.9531378 C14.4610123,55.8411456 14.8760478,55.8917547 15.2238612,56.0932321 C15.9527338,56.5334181 16.2057285,57.4694985 15.7978308,58.2169197 L15.062603,59.5835141 C14.876643,59.9406093 14.5526351,60.2060369 14.1659238,60.3180747 C13.7792126,60.4301125 13.3634961,60.3789976 13.0154447,60.1766161 Z" id="_Path_5"></path>
                            <path d="M43.1843818,4.48789588 C42.4558765,4.04874874 42.202793,3.11354494 42.6104121,2.36694143 L43.3456399,1.00034707 C43.5316,0.643251914 43.8556078,0.377824318 44.2423191,0.26578647 C44.6290304,0.153748622 45.0447468,0.204863573 45.3927983,0.407245119 C46.1189028,0.84820031 46.3714021,1.7812455 45.9667679,2.52819957 L45.2288069,3.89479393 C45.0439823,4.25229459 44.7204672,4.51821851 44.3339525,4.6303491 C43.9474378,4.7424797 43.5318356,4.69097885 43.1843818,4.48789588 Z" id="_Path_6"></path>
                            <path d="M12.3485466,0.787158351 C11.628854,1.24219881 11.3961445,2.18388842 11.8210412,2.92177874 L12.5890672,4.2637744 C12.7830735,4.61601898 13.1126428,4.87364504 13.5013048,4.97687533 C13.8899668,5.08010561 14.3039359,5.0199665 14.6471584,4.81041215 C15.3646487,4.3536055 15.5958372,3.41319791 15.1719306,2.67579176 L14.4066377,1.3337961 C14.2131982,0.980957514 13.8836162,0.722804576 13.4947148,0.619510708 C13.1058134,0.516216839 12.6915718,0.576807091 12.3485466,0.787158351 Z" id="_Path_7"></path>
                            <path d="M43.7692842,55.7816486 C43.0517938,56.2384552 42.8206053,57.1788628 43.2445119,57.916269 L44.0098048,59.2582646 C44.203811,59.6105092 44.5333803,59.8681353 44.9220423,59.9713656 C45.3107044,60.0745959 45.7246735,60.0144567 46.0678959,59.8049024 C46.7875885,59.3498619 47.020298,58.4081723 46.5954013,57.670282 L45.8273753,56.3282863 C45.6339357,55.9754478 45.3043537,55.7172948 44.9154523,55.6140009 C44.5265509,55.5107071 44.1123094,55.5712973 43.7692842,55.7816486 Z" id="_Path_8"></path>
                            <path d="M0.390845987,13.4746204 C0.576348991,13.1178151 0.899651722,12.8523527 1.28573498,12.7398311 C1.67181825,12.6273095 2.08711912,12.6775104 2.43527115,12.8787852 L3.74720174,13.6440781 C4.47367687,14.0860675 4.72608951,15.0199943 4.32117137,15.7677657 C4.13463383,16.1242813 3.81062679,16.389184 3.42415231,16.5011532 C3.03767782,16.6131225 2.62224269,16.5624507 2.27401302,16.3608677 L0.964815618,15.5955748 C0.236310306,15.1564277 -0.0167731976,14.2212239 0.390845987,13.4746204 Z" id="_Path_9"></path>
                            <path d="M54.0952711,44.824295 C54.2812312,44.4671999 54.6052391,44.2017723 54.9919503,44.0897344 C55.3786616,43.9776966 55.7943781,44.0288115 56.1424295,44.2311931 L57.4516269,44.9937527 C58.1804996,45.4339387 58.4334943,46.3700191 58.0255965,47.1174403 C57.8401881,47.4743575 57.5166739,47.7397511 57.1303988,47.8518122 C56.7441238,47.9638732 56.328806,47.9128199 55.9811714,47.7105423 L54.6692408,46.9479826 C53.9427656,46.5059932 53.690353,45.5720664 54.0952711,44.824295 Z" id="_Path_10"></path>
                            <path d="M57.6402169,12.8295879 C57.4467773,12.4767493 57.1171954,12.2185963 56.7282939,12.1153025 C56.3393925,12.0120086 55.925151,12.0725988 55.5821258,12.2829501 L54.2893275,13.0755748 C53.5720805,13.5323753 53.3399093,14.4718866 53.7618221,15.2101952 C53.9558068,15.5632098 54.2858784,15.8213987 54.6752164,15.9246714 C55.0645544,16.0279441 55.4791991,15.9672926 55.8226464,15.756833 L57.1127115,14.9642082 C57.8324041,14.5091678 58.0651136,13.5674782 57.6402169,12.8295879 Z" id="_Path_11"></path>
                            <path d="M4.64642082,45.3709328 C4.45187115,45.0185113 4.12181233,44.7608479 3.73271301,44.6576386 C3.34361368,44.5544292 2.92924062,44.6146305 2.58559653,44.824295 L1.29553145,45.6196529 C0.575838815,46.0746934 0.343129347,47.016383 0.76802603,47.7542733 C0.961465606,48.1071119 1.29104759,48.3652648 1.679949,48.4685587 C2.06885042,48.5718526 2.48309195,48.5112623 2.82611714,48.3009111 L4.1189154,47.5082863 C4.8365314,47.0504621 5.0686236,46.1100678 4.64642082,45.3709328 Z" id="_Path_12"></path>
                        </g>
                    </g>
                    <path d="M70.0570933,103.060347 C70.0570933,103.060347 69.8958351,102.918221 69.5951844,102.680434 C67.8623427,101.313839 61.9832538,97.2140564 54.803167,98.525987 C46.8386551,99.9964425 39.6367028,108.742646 25.6892408,108.365466 C2.41340564,107.766898 0.0601301518,85.2754881 0.0601301518,85.2754881 C0.0601301518,85.2754881 6.16334056,106.02039 24.9922777,105.501085 C36.4935358,105.181302 47.5711497,96.7548807 54.2783948,96.3476356 C66.8319306,95.5632104 70.0570933,103.060347 70.0570933,103.060347 Z" id="_Path_13" fill="#2D7BBC" fill-rule="nonzero"></path>
                    <path d="M80.4596095,43.0094577 C80.4596095,43.0094577 73.6266377,55.5602603 51.414013,54.5079826 C32.9403905,53.6333623 25.9160954,48.7354881 22.9150542,54.6911063 C18.71141,63.0327983 34.7388286,72.7984816 40.5113232,73.2603905 C40.5113232,73.2603905 28.2748373,62.174577 31.5081996,60.5592625 C34.7415618,58.9439479 46.0241649,64.462256 55.2869414,63.9374837 C67.5288937,63.2432538 80.9215184,54.5544469 80.4596095,43.0094577 Z" id="_Path_14" fill="#F05A28" fill-rule="nonzero"></path>
                    <path d="M14.8822126,83.6492408 C14.8822126,83.6492408 17.191757,98.6681128 32.6616052,97.5037744 C47.967462,96.3613015 57.5008243,80.2409544 66.96859,82.08859 C76.4363557,83.9362256 71.9156616,100.04564 71.9156616,100.04564 C71.9156616,100.04564 90.1569631,72.7574837 75.1626898,68.6030369 C59.8185683,64.3556616 34.7524946,88.9652928 26.4408677,88.9652928 C18.1292408,88.9652928 14.8822126,83.6492408 14.8822126,83.6492408 Z" id="_Path_15" fill="#F05A28" fill-rule="nonzero"></path>
                    <path d="M62.7649458,36.8215184 L64.9924946,35.2963991 C65.5725907,34.9002221 65.7986314,34.1536177 65.5357009,33.5022074 C65.2727704,32.8507972 64.5917927,32.470295 63.8992191,32.5878091 L61.6060738,32.9595228 C60.9947297,33.0606677 60.3844857,32.7734941 60.0727549,32.237961 L57.7030803,28.1764425 C57.4824066,27.7949212 57.1041066,27.5307116 56.6699349,27.4548807 C54.8906291,27.1487636 50.110282,26.4681996 47.8909328,27.5833406 C45.6715835,28.6984816 40.5987852,33.6920174 38.8249458,35.482256 C38.4353181,35.8765952 38.2963883,36.4544167 38.4641649,36.9827766 L39.5574403,40.4320607 C39.5739919,40.4841138 39.5876783,40.5370348 39.5984382,40.5905857 C39.7870282,41.5308026 41.8943167,50.9056399 50.6678525,50.9056399 C59.1981345,50.9056399 63.3963124,42.6322777 62.1691106,38.4586985 C61.9928092,37.8415442 62.2332112,37.1809901 62.7649458,36.8215184 Z" id="_Path_16" fill="#F05A28" fill-rule="nonzero"></path>
                    <g id="_Group_4" transform="translate(24.598698, 53.570499)" fill="#2D7BBC" fill-rule="nonzero">
                        <path d="M7.78685466,5.61396963 L0.407245119,18.1866377 C-0.104226457,19.057389 0.0836589608,20.1697167 0.852754881,20.8241649 L15.5573102,33.3449024 C16.1937945,33.8843797 17.0908099,33.9919355 17.8367896,33.6182213 L29.0428633,28.0151844 C29.3679297,27.8545187 29.6443434,27.6101803 29.8436876,27.3072885 L38.6281562,14.1196529 C38.9343757,13.6594443 39.0450807,13.0963779 38.9358836,12.5544938 C38.8266866,12.0126098 38.506546,11.5363647 38.045987,11.2306725 L21.8655098,0.516572668 C21.2980361,0.143236892 20.5845704,0.0688326142 19.9522777,0.317049892 L8.81180043,4.73388286 C8.38152442,4.90466735 8.02073586,5.21446446 7.78685466,5.61396963 Z" id="_Path_17"></path>
                    </g>
                    <g id="_Clip_Group_" transform="translate(24.052061, 60.403471)">
                        <g id="Clipped">
                            <mask id="mask-2" fill="white">
                                <use xlink:href="#path-1"></use>
                            </mask>
                            <g id="_Clipping_Path_"></g>
                            <path d="M56.4075488,-17.394013 C56.4075488,-17.394013 49.574577,-4.84321041 27.3619523,-5.89548807 C8.88832972,-6.77010846 1.86403471,-11.6679826 -1.13700651,-5.71236443 C-5.34065076,2.62932755 10.6867679,12.3950108 16.4592625,12.8569197 C16.4592625,12.8569197 4.22277657,1.77110629 7.45613883,0.155791757 C10.6895011,-1.45952278 21.9721041,4.05878525 31.2348807,3.53401302 C43.476833,2.83978308 56.8694577,-5.84902386 56.4075488,-17.394013 Z" id="_Path_18" fill="#F05A28" fill-rule="nonzero" mask="url(#mask-2)"></path>
                        </g>
                    </g>
                    <path d="M72.9433406,97.4217787 C72.9433406,97.4217787 79.2624729,84.1958785 79.3198698,78.1937961 C79.3963991,70.4206074 76.6003471,70.8141866 76.2942299,72.1807809 C75.9881128,73.5473753 77.3875054,77.2918438 76.6304121,85.0677657 C76.1001735,90.4849458 72.9433406,97.4217787 72.9433406,97.4217787 Z" id="_Path_19" fill="#FFFFFF" fill-rule="nonzero"></path>
                    <path d="M80.2436876,43.6927549 C80.2436876,43.6927549 79.8091106,51.9661171 71.8828633,57.1236443 C63.593102,62.521692 59.9661605,62.7813449 59.9087636,61.5432104 C59.8404338,60.0864208 66.4684165,59.4304555 72.6700217,54.7102386 C77.8958785,50.7662473 80.2436876,43.6927549 80.2436876,43.6927549 Z" id="_Path_20" fill="#FFFFFF" fill-rule="nonzero"></path>
                    <path d="M38.726551,72.4650325 C38.726551,72.4650325 27.5942733,66.7581345 25.0606074,61.9996529 C21.7643818,55.8417787 24.1313232,54.0023427 24.997744,54.860564 C25.8641649,55.7187852 24.12859,58.8455531 30.0131453,65.4243384 C33.2027766,69.0020824 38.726551,72.4650325 38.726551,72.4650325 Z" id="_Path_21" fill="#FFFFFF" fill-rule="nonzero"></path>
                    <!-- <polygon id="Shape" fill="#231F20" fill-rule="nonzero" points="111.75462 61.2234273 120.500824 61.2234273 120.500824 67.3895011 111.75462 67.3895011 111.75462 85.2098915 104.973579 85.2098915 104.973579 42.0419089 122.916963 42.0419089 122.916963 48.2079826 111.75462 48.2079826"></polygon> -->
                    <!-- <path d="M125.63102,52.4034273 C125.63102,45.4966594 129.268894,41.5499349 135.926941,41.5499349 C142.584989,41.5499349 146.225597,45.4966594 146.225597,52.4034273 L146.225597,74.8483731 C146.225597,81.755141 142.587722,85.7018655 135.926941,85.7018655 C129.266161,85.7018655 125.63102,81.755141 125.63102,74.8483731 L125.63102,52.4034273 Z M132.412061,75.2802169 C132.412061,78.3632538 133.778655,79.5357918 135.926941,79.5357918 C138.075228,79.5357918 139.441822,78.3632538 139.441822,75.2802169 L139.441822,51.9715835 C139.441822,48.8885466 138.075228,47.7160087 135.926941,47.7160087 C133.778655,47.7160087 132.412061,48.8885466 132.412061,51.9715835 L132.412061,75.2802169 Z" id="Shape" fill="#231F20" fill-rule="nonzero"></path> -->
                    <!-- <polygon id="Shape" fill="#231F20" fill-rule="nonzero" points="165.650369 62.2073753 163.190499 85.2071584 153.878525 85.2071584 149.068113 42.0419089 155.66603 42.0419089 159.303905 76.0810412 162.583731 42.0419089 169.121518 42.0419089 172.510672 76.3270282 176.017354 42.0419089 181.93744 42.0419089 177.110629 85.2071584 168.115705 85.2071584"></polygon> -->
                    <!-- <path d="M199.503644,85.2071584 C199.134664,84.0974837 198.885944,83.4196529 198.885944,79.9047722 L198.885944,73.1209978 C198.885944,69.1141432 197.519349,67.6327549 194.447245,67.6327549 L192.104902,67.6327549 L192.104902,85.2071584 L185.310195,85.2071584 L185.310195,42.0419089 L195.545987,42.0419089 C202.575748,42.0419089 205.598655,45.3217354 205.598655,51.9715835 L205.598655,55.3634707 C205.598655,59.8021692 204.18013,62.6993492 201.157223,64.1096746 C204.549111,65.5281996 205.658785,68.7970933 205.658785,73.2986551 L205.658785,79.959436 C205.658785,82.0557918 205.721649,83.5973102 206.399479,85.1989588 L199.503644,85.2071584 Z M192.104902,48.2079826 L192.104902,61.4666811 L194.756095,61.4666811 C197.284295,61.4666811 198.825813,60.3570065 198.825813,56.9049892 L198.825813,52.6494143 C198.825813,49.5663774 197.776269,48.2079826 195.371063,48.2079826 L192.104902,48.2079826 Z" id="Shape" fill="#231F20" fill-rule="nonzero"></path> -->
                    <!-- <path d="M224.293666,85.2071584 C223.921952,84.0974837 223.675965,83.4196529 223.675965,79.9047722 L223.675965,73.1209978 C223.675965,69.1141432 222.309371,67.6327549 219.237267,67.6327549 L216.892191,67.6327549 L216.892191,85.2071584 L210.11115,85.2071584 L210.11115,42.0419089 L220.346941,42.0419089 C227.376703,42.0419089 230.396876,45.3217354 230.396876,51.9715835 L230.396876,55.3634707 C230.396876,59.8021692 228.978351,62.6993492 225.958178,64.1096746 C229.350065,65.5281996 230.45974,68.7970933 230.45974,73.2986551 L230.45974,79.959436 C230.45974,82.0557918 230.522603,83.5973102 231.200434,85.1989588 L224.293666,85.2071584 Z M216.892191,48.2079826 L216.892191,61.4666811 L219.543384,61.4666811 C222.071584,61.4666811 223.615835,60.3570065 223.615835,56.9049892 L223.615835,52.6494143 C223.615835,49.5663774 222.566291,48.2079826 220.161085,48.2079826 L216.892191,48.2079826 Z" id="Shape" fill="#231F20" fill-rule="nonzero"></path> -->
                    <!-- <polygon id="Shape" fill="#231F20" fill-rule="nonzero" points="240.635401 70.9016486 232.061388 42.0419089 239.167679 42.0419089 244.360738 61.7208677 249.54013 42.0419089 256.015054 42.0419089 247.416443 70.9016486 247.416443 85.2071584 240.635401 85.2071584"></polygon> -->
                    <rect id="_Rectangle_" fill="#FFFFFF" fill-rule="nonzero" transform="translate(53.842404, 69.899246) rotate(-22.660000) translate(-53.842404, -69.899246) " x="45.3845516" y="69.2856447" width="16.915705" height="1.22720174" rx="0.613600868"></rect>
                    <rect id="_Rectangle_2" fill="#FFFFFF" fill-rule="nonzero" transform="translate(40.152049, 67.095593) rotate(41.240000) translate(-40.152049, -67.095593) " x="31.2391204" y="66.4819922" width="17.8258568" height="1.22720174" rx="0.613600868"></rect>
                    <rect id="_Rectangle_3" fill="#FFFFFF" fill-rule="nonzero" transform="translate(44.079608, 79.120919) rotate(112.250000) translate(-44.079608, -79.120919) " x="36.8298247" y="78.5073176" width="14.4995662" height="1.22720174" rx="0.613600868"></rect>
                    <path d="M65.5746638,34.2277223 C65.5746638,34.2277223 65.1537527,37.409154 57.3532321,36.0288937 C49.5527115,34.6486334 45.8738395,36.4470716 45.8738395,36.4470716 C45.8738395,36.4470716 51.9688503,35.8184382 56.7464642,37.6606074 C61.5240781,39.5027766 66.490282,38.0760521 65.5746638,34.2277223 Z" id="_Path_22" fill="#FFFFFF" fill-rule="nonzero"></path>
                    <path d="M16.1804772,117.193666 C11.4628861,118.400017 6.81034147,119.847779 2.24121475,121.531236 C2.24121475,121.531236 19.0065944,117.431453 29.1275922,115.950065 C39.5410412,114.41128 58.3727115,111.440304 71.2733623,112.003341 C88.4924512,112.752234 76.4418221,122.088807 68.488243,125.844208 C68.488243,125.844208 115.654881,111.027592 84.4090672,108.116746 C59.856833,105.829067 33.9571367,112.708503 16.1804772,117.193666 Z" id="_Path_23" fill="#2D7BBC" fill-rule="nonzero"></path>
                </g>
            </g>
        </g>
    </g>
</svg>